<?xml version="1.0" encoding="UTF-8" standalone="no"?>
<svg width="442px" height="190px" viewBox="0 0 442 190" version="1.1" xmlns="http://www.w3.org/2000/svg" xmlns:xlink="http://www.w3.org/1999/xlink">
    <!-- Generator: Sketch 47.1 (45422) - http://www.bohemiancoding.com/sketch -->
    <title>YATRA FINAL RGB</title>
    <desc>Created with Sketch.</desc>
    <defs>
        <linearGradient x1="45.0785897%" y1="50%" x2="63.0629619%" y2="0.881839244%" id="linearGradient-1">
            <stop stop-color="#000000" stop-opacity="0" offset="0%"></stop>
            <stop stop-color="#000000" stop-opacity="0.35" offset="100%"></stop>
        </linearGradient>
        <linearGradient x1="42699%" y1="15629.2276%" x2="48972%" y2="16842.2813%" id="linearGradient-2">
            <stop stop-color="#FFFFFF" stop-opacity="0" offset="2%"></stop>
            <stop stop-color="#FFFFFF" stop-opacity="0" offset="65%"></stop>
            <stop stop-color="#DFDFE0" stop-opacity="0.17" offset="71%"></stop>
            <stop stop-color="#88898A" stop-opacity="0.62" offset="91%"></stop>
            <stop stop-color="#666769" stop-opacity="0.8" offset="100%"></stop>
        </linearGradient>
        <linearGradient x1="54.4159844%" y1="37.6228498%" x2="91.8449971%" y2="81.1604458%" id="linearGradient-3">
            <stop stop-color="#000000" stop-opacity="0" offset="0%"></stop>
            <stop stop-color="#000000" stop-opacity="0.35" offset="100%"></stop>
        </linearGradient>
        <linearGradient x1="50%" y1="0%" x2="50%" y2="100%" id="linearGradient-4">
            <stop stop-color="#000000" stop-opacity="0.35" offset="0%"></stop>
            <stop stop-color="#000000" stop-opacity="0" offset="100%"></stop>
        </linearGradient>
    </defs>
    <g id="Page-1" stroke="none" stroke-width="1" fill="none" fill-rule="evenodd">
        <g id="YATRA-FINAL-RGB">
            <g id="Layer_1_copy" fill-rule="nonzero" fill="#EA2330">
                <path d="M271.06,133.68 C275.53,132.9 279.95,136.81 280.93,142.45 C281.91,148.09 279.09,153.35 274.62,154.13 L274.49,154.13 C269.799899,155.007939 265.041394,155.469735 260.27,155.51 C250.32,155.51 242.27,153.12 236.07,148.32 C228.07,142.18 223.85,132.51 223.85,120.38 L223.85,8.21 C223.85,3.68 228.5,-2.84217094e-14 234.23,-2.84217094e-14 C239.96,-2.84217094e-14 244.61,3.68 244.61,8.21 L244.61,120.42 C244.61,125.94 245.99,129.79 248.72,131.89 C251.18,133.78 257.16,136.19 270.88,133.72 L271.06,133.68 Z" id="Shape"></path>
                <path d="M61.22,145.73 C57.46,145.73 53.9,140.21 52.06,136.63 C42.41,117.89 35.06,102.93 29.19,90.91 C17.19,66.36 10.68,54.68 5.28,50.52 C-0.12,46.36 -1.22,40.95 1.36,36.17 C2.67744657,33.8028779 4.88895471,32.0627922 7.49957299,31.3391867 C10.1101913,30.6155812 12.9019379,30.9688756 15.25,32.32 C26.81,38.89 32.83,51.17 47.83,81.79 C53.65,93.67 60.89,108.45 70.38,126.88 C72.73,131.44 74.38,140.63 70.27,143.67 L61.22,145.73 Z" id="Shape"></path>
                <path d="M304.28,101.24 C304.25243,73.9922717 282.167733,51.912049 254.92,51.89 L211.29,51.89 C206.75,51.89 203.08,47.24 203.08,41.51 C203.08,35.78 206.75,31.13 211.29,31.13 L254.92,31.13 C293.635161,31.13 325.02,62.514839 325.02,101.23 L325.02,147.42 C325.02,151.95 320.37,155.63 314.64,155.63 C308.91,155.63 304.26,151.95 304.26,147.42 L304.28,101.24 Z" id="Shape"></path>
                <path d="M179.82,114.31 L179.82,115.42 C179.82,127.25 170.22,134.91 155.19,134.91 C140.16,134.91 130.46,127.27 130.46,115.44 C130.46,103.61 140.17,95.93 155.19,95.93 L156.1,95.93 C171.76,95.93 198.81,103.14 200.67,103.75 L200.67,84.01 C190.67,80.49 174.67,75.19 156.1,75.19 L155.19,75.19 C127.37,75.19 109.7,93.24 109.7,115.45 C109.7,137.66 127.37,155.66 155.19,155.66 C183.01,155.66 200.68,137.66 200.68,115.45 L200.68,114.45 L200.59,71.37 C200.59,49.16 179.14,31.16 155.19,31.16 L151.19,31.1 C119.55,31.1 94.77,39.66 76.67,81.44 C75.19,84.85 73.79,88.24 72.43,91.61 L72.23,92.09 C67.9,102.78 65.36,110.64 59.11,125.09 C47.43,152.09 36.95,167.86 21,168.78 C12.35,169.28 10.23,175.04 11.31,180.78 C12.39,186.52 15.97,190 21,190 C47,190 63.25,166.08 78.82,132 L79.01,131.56 C81.38,126.02 83.65,120.26 86.01,114.29 C89.11,106.29 92.32,97.97 95.88,89.75 C109.71,57.83 125.37,51.93 151.24,51.93 L155.24,51.93 C166.33,51.93 179.87,59.57 179.87,71.38 L179.87,114.19" id="Shape"></path>
                <path d="M421.03,114.31 L421.03,115.42 C421.03,127.25 411.31,134.91 396.28,134.91 C381.25,134.91 371.55,127.27 371.55,115.44 C371.55,103.61 381.26,95.93 396.28,95.93 L397.2,95.93 C412.86,95.93 439.91,103.14 441.78,103.75 L441.78,84.01 C431.78,80.49 415.73,75.19 397.2,75.19 L396.28,75.19 C368.46,75.19 350.79,93.24 350.79,115.45 C350.79,137.66 368.46,155.66 396.28,155.66 C424.1,155.66 441.77,137.66 441.77,115.45 L441.77,114.45 L441.68,71.37 C441.68,49.16 420.23,31.23 396.28,31.23 C396.28,31.23 388.82,31.16 387.28,31.16 C336.15,31.16 304.28,64.5 304.28,110.59 L325.04,110.59 C325.04,76.01 347.65,51.91 387.25,51.91 C389.08,51.91 394.85,51.99 394.85,51.99 C409.75,51.99 421.03,59.54 421.03,71.36 L421.03,114.36 L421.03,114.31 Z" id="Shape"></path>
            </g>
            <g id="shadow" transform="translate(29.000000, 31.000000)" opacity="0.7">
                <g id="Group" style="mix-blend-mode: multiply;">
                    <path d="M150.82,67.87 L150.82,84.42 C150.82,93.68 144.92,100.36 135.15,102.84 L135.15,123.98 C157.74,120.55 171.68,104.16 171.68,84.44 L171.68,83.44 L171.68,72.78 C169.27,72.15 156.73,69.33 150.82,67.87 Z" id="Shape" fill="url(#linearGradient-1)" fill-rule="nonzero" style="mix-blend-mode: multiply;"></path>
                    <path d="M392.03,67.87 L392.03,84.42 C392.03,93.68 386.03,100.42 376.25,102.87 L376.25,123.99 C398.84,120.56 412.78,104.17 412.78,84.45 L412.78,83.45 L412.78,72.79 C410.36,72.15 397.92,69.33 392.03,67.87 Z" id="Shape" fill="url(#linearGradient-1)" fill-rule="nonzero" style="mix-blend-mode: multiply;"></path>
                    <path d="M231.14,0.35 L231.14,21.17 C256.22238,23.8605811 275.250309,45.0137416 275.28,70.24 L275.28,72.78 L275.54,72.78 C276.300555,59.7185124 280.241537,47.0407706 287.02,35.85 C275.506277,15.412434 254.533116,2.08839653 231.14,0.35 L231.14,0.35 Z" id="Shape" fill="url(#linearGradient-2)" fill-rule="nonzero" style="mix-blend-mode: multiply;"></path>
                    <path d="M0.19,59.92 C6.08,71.92 13.41,86.92 23.06,105.64 C23.33,106.17 23.64,106.74 23.99,107.33 C25.99,103.27 28.06,98.84 30.13,94.05 C31.95,89.86 33.44,86.24 34.77,82.93 C28.41,70.36 23.22,59.75 18.83,50.8 L0.19,59.92 Z" id="Shape" fill="url(#linearGradient-3)" fill-rule="nonzero" style="mix-blend-mode: multiply;"></path>
                    <rect id="Rectangle-33" fill="url(#linearGradient-4)" x="194.849976" y="20.8900146" width="20.7600002" height="20"></rect>
                </g>
            </g>
        </g>
    </g>
</svg>